<svg width="36" height="36" viewBox="0 0 36 36" fill="none" xmlns="http://www.w3.org/2000/svg">
<path d="M28.7886 5.73767C28.1605 3.86634 24.8772 1.49667 19.1594 1.09437C15.1364 0.814063 14.324 2.13256 14.228 2.30646C14.2243 2.30941 14.2197 2.31101 14.215 2.31101C14.2103 2.31101 14.2057 2.30941 14.202 2.30646C13.7518 2.12572 13.2654 2.0534 12.7821 2.09533C12.2988 2.13726 11.8321 2.29227 11.4197 2.54784C9.91433 3.42251 7.37337 5.64164 5.16981 11.1674C2.96626 16.6931 5.04783 20.4073 5.45012 22.2994C5.85242 24.1915 6.2106 26.8362 5.00889 28.0379C3.80719 29.2396 3 29.1384 3 29.4187C3 29.699 3.13237 29.7977 3.42306 29.7977C3.82666 29.7229 4.21188 29.5704 4.55728 29.3487C4.94641 29.1034 5.30608 28.8143 5.62921 28.487C5.65737 28.4607 5.69358 28.4446 5.73198 28.4414C5.77039 28.4382 5.80874 28.4481 5.84085 28.4694C5.87296 28.4907 5.89695 28.5222 5.90894 28.5589C5.92093 28.5955 5.92022 28.6351 5.90693 28.6712C5.73399 29.154 5.52936 29.6248 5.2944 30.0806C4.67667 31.1188 4.96737 31.1759 5.91471 31.7209C7.4385 32.5846 9.07947 33.2228 10.7864 33.6156C11.0604 33.673 11.3396 33.7017 11.6196 33.7013C11.6246 33.7015 11.6296 33.7002 11.6338 33.6974C11.638 33.6946 11.6412 33.6905 11.6429 33.6857C11.6844 33.5793 11.9362 32.9278 12.0322 32.6475C12.1283 32.3672 12.3645 32.388 12.419 32.6994C12.4735 33.0109 12.4527 33.8103 12.7252 33.9504C13.2054 34.197 17.885 33.979 18.5261 33.9504C18.5315 33.9497 18.5365 33.9475 18.5407 33.944C18.5449 33.9405 18.5479 33.9359 18.5496 33.9307C18.5512 33.9255 18.5513 33.92 18.5499 33.9148C18.5485 33.9095 18.5457 33.9048 18.5417 33.9011C18.0226 33.4832 13.9996 30.2804 13.8439 28.9697C13.7219 27.9549 13.4727 24.2979 13.4494 23.9683C13.4495 23.965 13.4488 23.9618 13.4475 23.9589C13.4461 23.956 13.4441 23.9534 13.4416 23.9514C13.4391 23.9494 13.4361 23.948 13.433 23.9473C13.4298 23.9466 13.4265 23.9467 13.4234 23.9475C12.694 23.9813 11.9691 23.8162 11.3263 23.4699C9.73005 22.6913 8.87095 18.7565 11.1082 17.8948C12.4761 17.3758 14.6563 17.682 15.0534 17.259C15.2169 17.0851 16.2525 15.3824 16.4627 15.4421C16.6729 15.5018 16.5094 15.8263 16.3771 16.1922C16.2213 16.6231 16.159 16.5971 16.4445 16.6854C16.8027 16.797 22.5698 13.1529 24.4905 9.28568C25.5287 7.19113 27.5817 6.94975 28.0619 7.80366C28.542 8.65757 29.9617 9.18705 30.1382 11.8085C30.2586 13.0983 30.1807 14.3991 29.9072 15.6653C29.906 15.6699 29.9061 15.6747 29.9074 15.6793C29.9087 15.6838 29.9112 15.6879 29.9147 15.6911C29.9182 15.6943 29.9225 15.6965 29.9271 15.6974C29.9317 15.6984 29.9365 15.6981 29.941 15.6965C30.3511 15.5537 33.3151 14.3832 32.9725 10.5055C32.6558 7.07174 29.0066 5.81034 28.7886 5.73767Z" fill="#D05E40"/>
<path d="M29.2558 23.9475C29.2556 23.9079 29.2418 23.8695 29.2166 23.839C29.1914 23.8084 29.1564 23.7876 29.1176 23.7799C29.0787 23.7723 29.0384 23.7783 29.0035 23.797C28.9686 23.8158 28.9413 23.846 28.9261 23.8826C28.5602 24.7858 27.9113 26.2029 27.086 27.2204C26.2682 28.186 25.2125 28.9215 24.0233 29.3538C23.9907 29.3656 23.9625 29.3871 23.9425 29.4154C23.9225 29.4437 23.9118 29.4775 23.9117 29.5122C23.9117 30.0702 23.8754 32.4009 23.9117 32.8214C23.9558 33.299 23.8676 34.4695 26.3852 33.8596C28.9028 33.2496 29.2402 33.6 29.2402 29.7354L29.2558 23.9475Z" fill="#D05E40"/>
<path d="M22.4323 29.0761C21.1752 29.0681 19.9435 28.722 18.8661 28.0743C18.5702 27.8874 18.2536 27.7213 17.9188 27.5552C16.4964 26.7817 14.8847 25.9356 14.228 23.3661C13.5869 23.3947 12.04 23.3661 11.1939 22.5252C10.8569 22.1729 10.6081 21.7458 10.4678 21.2789C10.3275 20.812 10.2997 20.3186 10.3867 19.8389C10.4234 19.5512 10.5304 19.2771 10.6984 19.0408C10.8664 18.8045 11.0901 18.6132 11.3496 18.484C12.2684 18.0973 13.7219 18.1674 13.7816 18.17C13.8242 18.1722 13.8659 18.1828 13.9045 18.2011C13.943 18.2195 13.9775 18.2452 14.006 18.2769C14.0346 18.3086 14.0566 18.3456 14.0709 18.3858C14.0852 18.426 14.0914 18.4687 14.0891 18.5113C14.0869 18.5539 14.0763 18.5956 14.058 18.6341C14.0396 18.6727 14.0139 18.7072 13.9822 18.7357C13.9505 18.7643 13.9135 18.7863 13.8733 18.8006C13.8331 18.8149 13.7904 18.8211 13.7478 18.8188C13.7478 18.8188 12.3826 18.7514 11.604 19.0784C11.4432 19.1662 11.3063 19.2921 11.2054 19.445C11.1045 19.5979 11.0426 19.7733 11.0252 19.9557C10.9569 20.3304 10.9778 20.7159 11.086 21.0811C11.1942 21.4463 11.3867 21.7809 11.6481 22.058C12.4942 22.8911 14.4253 22.6991 14.446 22.6965C14.5262 22.6885 14.6065 22.7106 14.6713 22.7586C14.7361 22.8066 14.7807 22.877 14.7964 22.956C15.3415 25.4503 16.8053 26.2211 18.2198 26.9686C18.5676 27.1503 18.8947 27.3242 19.2087 27.5214C20.1844 28.0992 21.2958 28.4082 22.4297 28.4169C23.0966 28.4331 23.7583 28.2949 24.363 28.0131C24.9677 27.7312 25.499 27.3134 25.9154 26.7921C27.7841 24.4406 29.2895 20.7239 29.3544 19.0914V18.8604C29.3616 17.9445 29.489 17.0335 29.7333 16.1507C29.9651 15.4074 30.1122 14.6404 30.172 13.8641C30.172 13.778 30.2062 13.6955 30.267 13.6347C30.3278 13.5738 30.4104 13.5397 30.4964 13.5397C30.5824 13.5397 30.665 13.5738 30.7258 13.6347C30.7867 13.6955 30.8208 13.778 30.8208 13.8641C30.7603 14.6982 30.6053 15.5228 30.3588 16.322C30.1365 17.1524 30.0248 18.0085 30.0266 18.8682V19.1043C29.9669 20.8329 28.3915 24.7417 26.4475 27.184C25.9727 27.7913 25.3621 28.2788 24.6648 28.6074C23.9675 28.936 23.2029 29.0965 22.4323 29.0761Z" fill="#D05E40"/>
<path d="M21.9469 34.9445C21.3162 34.9445 20.5558 34.672 19.7486 34.1425C18.7675 33.5014 14.7471 30.5659 14.4798 28.9801C14.2202 27.4929 13.9607 23.4336 13.9425 23.2701C13.9393 23.2276 13.9446 23.1849 13.9581 23.1444C13.9715 23.104 13.9929 23.0667 14.0209 23.0345C14.0489 23.0024 14.083 22.9762 14.1212 22.9574C14.1595 22.9385 14.201 22.9275 14.2436 22.9249C14.3291 22.9199 14.4131 22.9486 14.4777 23.0049C14.5422 23.0612 14.5821 23.1406 14.5888 23.2259C14.5888 23.2675 14.8717 27.4254 15.1079 28.8815C15.2947 29.9768 18.4041 32.5022 20.0938 33.6078C21.0437 34.2307 21.934 34.4565 22.4297 34.1996C22.7334 34.0361 22.8943 33.6623 22.9021 33.0861C22.928 31.1136 22.9021 28.9593 22.9021 28.9334C22.9014 28.8909 22.9091 28.8487 22.9248 28.8092C22.9405 28.7697 22.9639 28.7338 22.9936 28.7034C23.0232 28.673 23.0586 28.6487 23.0977 28.6321C23.1368 28.6154 23.1788 28.6067 23.2213 28.6064C23.3068 28.607 23.3887 28.6405 23.4501 28.6999C23.5115 28.7594 23.5476 28.8402 23.5509 28.9256C23.5509 28.9464 23.5769 31.1084 23.5509 33.0913C23.5354 34.1295 23.0993 34.5733 22.7334 34.768C22.4897 34.8905 22.2196 34.9511 21.9469 34.9445Z" fill="#D05E40"/>
<path d="M14.3448 24.3809C15.1147 26.0208 16.1913 27.4982 17.5165 28.7335C18.9232 30.0313 19.9199 31.2018 21.5991 31.0435C22.2143 30.9864 23.0267 30.2285 23.2213 28.9282C23.2213 28.9282 21.1449 29.1306 18.6948 27.5811C17.1811 26.6038 15.7284 25.5351 14.3448 24.3809Z" fill="#D05E40"/>
<path d="M26.1127 14.8919C26.0615 14.8975 26.0098 14.893 25.9604 14.8786C25.911 14.8643 25.8649 14.8403 25.8248 14.8081C25.7847 14.776 25.7513 14.7362 25.7265 14.6911C25.7018 14.646 25.6861 14.5965 25.6805 14.5454C25.6749 14.4943 25.6794 14.4425 25.6938 14.3931C25.7081 14.3438 25.7321 14.2977 25.7643 14.2576C25.7964 14.2174 25.8362 14.184 25.8813 14.1593C25.9264 14.1345 25.9759 14.1189 26.027 14.1132C26.1204 14.0925 28.3889 13.5293 28.3629 10.7236C28.3618 10.0998 28.2231 9.484 27.9566 8.92005C27.6901 8.3561 27.3024 7.85792 26.8212 7.46106C27.2428 8.6086 27.273 9.86339 26.9069 11.0298C26.0633 13.7006 24.1635 14.7621 24.083 14.801C23.9928 14.8467 23.8884 14.8555 23.7919 14.8255C23.6954 14.7956 23.6143 14.7293 23.5657 14.6406C23.5172 14.552 23.505 14.4479 23.5318 14.3505C23.5586 14.253 23.6222 14.1698 23.7093 14.1184C24.8915 13.3379 25.7587 12.1636 26.1568 10.804C26.3635 10.1028 26.4133 9.36456 26.3025 8.64189C26.1917 7.91923 25.923 7.22984 25.5157 6.62272C25.4664 6.55418 25.4406 6.47156 25.4421 6.38716C25.4435 6.30276 25.4722 6.22108 25.5238 6.15429C25.5755 6.0875 25.6473 6.03917 25.7286 6.01648C25.8099 5.99379 25.8963 5.99795 25.9751 6.02836C26.1023 6.08027 29.0897 7.3261 29.1338 10.7236C29.1753 14.1703 26.2269 14.8763 26.1983 14.8763C26.1706 14.8852 26.1418 14.8904 26.1127 14.8919Z" fill="#D05E40"/>
<path d="M27.073 15.7458C27.056 15.9023 27.0976 16.0595 27.1898 16.187C27.426 16.4258 28.7237 16.3765 29.2194 16.3583C29.5672 16.3583 29.1078 15.7302 28.8976 15.6913C28.2946 15.5546 27.6668 15.5733 27.073 15.7458Z" fill="#D05E40"/>
<path d="M27.6284 20.5656C27.3562 20.5633 27.0911 20.4778 26.8689 20.3205C26.6467 20.1632 26.4779 19.9417 26.3852 19.6857C26.1594 19.0023 26.2078 18.2578 26.5202 17.6093C26.7932 17.176 27.1766 16.8231 27.631 16.5867C27.6922 16.5562 27.7615 16.5457 27.829 16.5569C27.8964 16.5681 27.9586 16.6003 28.0067 16.649C28.0548 16.6976 28.0862 16.7602 28.0966 16.8278C28.107 16.8954 28.0957 16.9645 28.0645 17.0254H28.0956C28.7081 17.3316 28.9288 18.2271 28.9288 18.7514C28.9288 19.2756 28.7263 19.992 28.2695 20.3294C28.0879 20.477 27.8624 20.56 27.6284 20.5656ZM27.1742 17.804C27.1405 17.8507 27.1093 17.9 27.0782 17.9494C26.8699 18.4236 26.8386 18.9568 26.9899 19.4521C27.0233 19.5534 27.0802 19.6452 27.156 19.7201C27.2318 19.7951 27.3243 19.8509 27.426 19.883C27.5007 19.9139 27.582 19.9254 27.6624 19.9163C27.7427 19.9072 27.8195 19.8779 27.8854 19.8311C28.1449 19.6416 28.2799 19.1459 28.2799 18.7747C28.2799 18.4036 28.1008 17.7781 27.8049 17.6301C27.657 17.5522 27.4364 17.6119 27.1742 17.804Z" fill="#D05E40"/>
<path d="M27.997 18.8578C28.0125 19.5689 27.5324 20.1711 27.182 20.0387C26.8316 19.9063 26.5772 19.3976 26.5772 18.6891C26.5772 17.9805 26.7797 17.3913 27.2858 17.3602C27.9165 17.3212 27.9788 18.1752 27.997 18.8578Z" fill="#D05E40"/>
<path d="M25.1108 21.91C24.9525 21.91 24.7708 21.91 24.5684 21.8815C24.4827 21.8732 24.4037 21.8313 24.349 21.7648C24.2942 21.6984 24.2681 21.6129 24.2764 21.5272C24.2846 21.4415 24.3266 21.3626 24.393 21.3078C24.4595 21.2531 24.5449 21.227 24.6306 21.2352C25.4093 21.3105 25.552 21.1989 25.565 21.1859C25.5841 21.0803 25.5841 20.9722 25.565 20.8667C25.565 20.8018 25.565 20.7369 25.5494 20.6694C25.547 20.6268 25.553 20.5841 25.567 20.5438C25.5811 20.5035 25.603 20.4664 25.6315 20.4345C25.6599 20.4027 25.6944 20.3768 25.7329 20.3583C25.7713 20.3398 25.8131 20.3291 25.8557 20.3268C25.9414 20.3232 26.0252 20.3532 26.0892 20.4104C26.1532 20.4676 26.1923 20.5475 26.1983 20.6331C26.1983 20.6928 26.1983 20.7525 26.1983 20.807C26.2342 20.9522 26.2358 21.1038 26.2029 21.2498C26.17 21.3958 26.1036 21.5321 26.0088 21.6479C25.8401 21.827 25.5624 21.91 25.1108 21.91Z" fill="#D05E40"/>
<path d="M27.182 21.8374C27.397 21.8374 27.5713 21.6631 27.5713 21.448C27.5713 21.233 27.397 21.0587 27.182 21.0587C26.967 21.0587 26.7927 21.233 26.7927 21.448C26.7927 21.6631 26.967 21.8374 27.182 21.8374Z" fill="#D05E40"/>
<path d="M17.9006 21.256C17.8403 21.256 17.7813 21.2392 17.73 21.2075C17.6788 21.1759 17.6373 21.1305 17.6104 21.0766C17.5835 21.0227 17.5721 20.9624 17.5775 20.9024C17.5829 20.8424 17.6049 20.7851 17.641 20.7369L18.2562 19.896C18.307 19.8271 18.3829 19.781 18.4675 19.7679C18.5521 19.7548 18.6385 19.7756 18.7078 19.8259C18.7773 19.8768 18.8239 19.953 18.8375 20.038C18.8511 20.1231 18.8306 20.2101 18.7804 20.2801L18.1653 21.121C18.1351 21.163 18.0954 21.1971 18.0493 21.2206C18.0033 21.2441 17.9523 21.2562 17.9006 21.256Z" fill="#D05E40"/>
<path d="M19.0374 22.0684C18.9807 22.0687 18.9251 22.0534 18.8765 22.0242C18.8393 22.0035 18.8066 21.9755 18.7804 21.942C18.7541 21.9084 18.7349 21.8699 18.7238 21.8288C18.7127 21.7877 18.7099 21.7447 18.7156 21.7025C18.7213 21.6603 18.7354 21.6197 18.7571 21.583L19.1438 20.903C19.1651 20.866 19.1934 20.8335 19.2272 20.8074C19.2611 20.7814 19.2997 20.7623 19.3409 20.7512C19.3822 20.7401 19.4252 20.7372 19.4675 20.7428C19.5099 20.7484 19.5507 20.7622 19.5876 20.7836C19.6248 20.8044 19.6575 20.8323 19.6837 20.8659C19.71 20.8995 19.7292 20.9379 19.7403 20.9791C19.7515 21.0202 19.7542 21.0631 19.7485 21.1053C19.7428 21.1475 19.7287 21.1882 19.707 21.2248L19.3203 21.9049C19.2912 21.9542 19.2499 21.9951 19.2003 22.0238C19.1508 22.0524 19.0946 22.0678 19.0374 22.0684Z" fill="#D05E40"/>
<path d="M22.2817 25.0869C22.1987 25.0885 22.1182 25.0582 22.0568 25.0022C21.9955 24.9462 21.9579 24.8688 21.9519 24.7859C21.9459 24.7031 21.972 24.6211 22.0246 24.5568C22.0773 24.4926 22.1526 24.451 22.235 24.4406C22.4427 24.4095 22.7541 24.3264 22.9981 24.2589C23.1201 24.2252 23.2291 24.1966 23.3199 24.1759L23.377 24.1603C23.7015 24.0773 24.4568 23.8852 24.9655 24.3991C24.9955 24.4294 25.0192 24.4654 25.0353 24.5049C25.0514 24.5444 25.0596 24.5867 25.0593 24.6293C25.0591 24.672 25.0504 24.7142 25.0339 24.7535C25.0173 24.7928 24.9932 24.8285 24.9629 24.8585C24.9325 24.8885 24.8966 24.9122 24.8571 24.9283C24.8176 24.9444 24.7753 24.9526 24.7326 24.9523C24.69 24.9521 24.6478 24.9435 24.6085 24.9269C24.5691 24.9104 24.5335 24.8862 24.5035 24.8559C24.2569 24.5964 23.7897 24.7261 23.538 24.7884L23.4731 24.8066C23.3874 24.8248 23.281 24.8533 23.1668 24.8845C22.8928 24.9648 22.6147 25.0307 22.3337 25.0817L22.2817 25.0869Z" fill="#D05E40"/>
<path d="M19.4916 16.3428C20.5532 16.3428 22.3933 16.2467 22.6996 16.2234C23.0059 16.2 23.0292 15.6342 23.0292 15.6342C23.0292 15.6342 21.0022 15.2579 20.1067 15.3279C19.2113 15.398 18.2743 15.725 18.1809 16.0079C18.0875 16.2909 19.4916 16.3428 19.4916 16.3428Z" fill="#D05E40"/>
<path d="M20.8309 20.5111C20.5522 20.4969 20.2805 20.4187 20.0369 20.2826C19.7933 20.1465 19.5843 19.9561 19.4262 19.7262C19.2681 19.4962 19.165 19.233 19.125 18.9568C19.0851 18.6806 19.1093 18.399 19.1957 18.1336C19.3012 17.8236 19.4544 17.532 19.6499 17.2693C19.8474 16.9973 20.0775 16.7507 20.3351 16.5348C20.3815 16.4987 20.4369 16.476 20.4952 16.4691C20.5536 16.4622 20.6127 16.4715 20.6662 16.4958C20.7197 16.5201 20.7655 16.5587 20.7986 16.6072C20.8318 16.6557 20.851 16.7123 20.8542 16.771C21.0098 16.7816 21.1633 16.8121 21.311 16.8619C21.663 16.9729 21.9733 17.1877 22.2011 17.4781C22.429 17.7685 22.5638 18.1209 22.588 18.4892C22.6137 18.7566 22.5831 19.0263 22.4981 19.2811C22.4132 19.5359 22.2758 19.7701 22.0949 19.9686C21.762 20.3098 21.3074 20.5049 20.8309 20.5111ZM20.1716 17.6561C20.0184 17.8614 19.8976 18.089 19.8135 18.3309C19.7529 18.5061 19.7355 18.6934 19.7626 18.8768C19.7897 19.0602 19.8606 19.2344 19.9692 19.3846C20.0581 19.5199 20.1769 19.633 20.3163 19.7152C20.4558 19.7974 20.6123 19.8465 20.7737 19.8588C20.9351 19.8711 21.0972 19.8462 21.2475 19.786C21.3978 19.7259 21.5323 19.6321 21.6407 19.5118C21.7575 19.3762 21.845 19.2179 21.8978 19.0468C21.9505 18.8757 21.9672 18.6956 21.9469 18.5178C21.9268 18.2815 21.8368 18.0567 21.6885 17.8718C21.5401 17.6869 21.34 17.5504 21.1138 17.4796C20.9565 17.4148 20.7838 17.3969 20.6166 17.4283C20.4493 17.4596 20.2948 17.5387 20.1716 17.6561Z" fill="#D05E40"/>
<path d="M21.5135 18.6943C21.4797 19.3976 21.1891 19.9245 20.5895 19.896C19.99 19.8674 19.5306 19.2756 19.5643 18.5723C19.598 17.8689 20.1093 17.3238 20.7089 17.3524C21.3084 17.3809 21.5446 17.9961 21.5135 18.6943Z" fill="#D05E40"/>
</svg>
